<svg width="461" height="266" viewBox="0 0 461 266" fill="none" xmlns="http://www.w3.org/2000/svg">
<g clip-path="url(#clip0)">
<path d="M77.5 81.2C77.5 80.6 77.5 80 77.5 79.3C77.5 78.6 77.6 77.8 77.6 77.1C77.6 76.3 77.6 75.6 77.6 74.9C77.6 74.2 77.5 73.6 77.4 73.2C77.1 71.6 77 70.5 77.3 69.8C77.6 69.2 78 68.8 78.5 68.8C79 68.8 79.5 68.9 80.1 69.2C80.6 69.5 81 69.8 81.2 70C81.6 70.5 81.9 70.7 81.9 70.9C81.9 71 82 71.1 82 71.1C82 71.1 82.1 71.1 82.3 71.2C82.5 71.3 82.9 71.5 83.7 71.8C85.1 72.6 86.5 73.9 88 75.9C89.5 77.9 91 80 92.5 82.4C94 84.8 95.4 87.2 96.7 89.6C98 92 99.2 94.1 100.2 95.8C100.3 96.1 100.5 96.5 100.7 97C100.9 97.6 101.2 98.2 101.4 98.8C101.6 99.4 101.9 100 102.1 100.5C102.3 101 102.5 101.4 102.6 101.5C102.6 101.2 102.6 100.9 102.6 100.5C102.6 100.1 102.6 99.6 102.6 99.2C102.6 98.7 102.6 98.3 102.6 97.9C102.6 97.5 102.6 97.2 102.6 97C102.7 95.5 102.7 93.8 102.8 91.7C102.9 89.6 102.9 87.5 103 85.3C103.1 83.1 103.2 81 103.3 78.9C103.4 76.8 103.6 75.1 103.9 73.6C104.1 72.8 104.2 72.1 104.2 71.4C104.3 70.7 104.3 70.1 104.3 69.6C104.3 69.1 104.4 68.6 104.5 68.1C104.6 67.6 104.7 67.2 104.9 66.8C106.2 66.5 107.4 66.6 108.5 67.1C109.2 67.4 109.8 67.9 110.4 68.5C111 69.1 111.3 69.8 111.4 70.7C111.6 72.6 111.7 74.6 111.8 76.9C111.8 79.2 111.8 81.5 111.8 84C111.8 86.4 111.7 88.8 111.7 91.1C111.6 93.4 111.6 95.5 111.7 97.4C111.7 98.2 111.7 99.2 111.7 100.4C111.7 101.7 111.6 103 111.6 104.6C111.6 106.1 111.5 107.7 111.5 109.3C111.5 110.9 111.5 112.5 111.5 114.1C111.5 115.3 111.5 116.4 111.4 117.5C111.3 118.6 111.3 119.6 111.2 120.5C111.1 121.4 111.1 122.2 111 122.9C110.9 123.6 110.8 124 110.7 124.3C110.3 125.1 109.8 125.5 109.1 125.6C108.4 125.7 107.6 125.7 106.8 125.4C106 125.2 105.2 124.8 104.6 124.3C103.9 123.8 103.4 123.3 103.2 122.8C103 122.4 102.8 122 102.7 121.4C102.6 120.8 102.5 120.3 102.5 119.7C102.4 119.1 102.4 118.5 102.3 118C102.2 117.5 102.2 117.1 102.1 116.9C101.8 115.8 101.2 114.3 100.1 112.1C99 110 97.8 107.7 96.5 105.2C95.2 102.7 93.8 100.3 92.5 97.9C91.2 95.5 90.2 93.5 89.4 92C89.1 91.6 88.7 90.8 88.1 89.6C87.5 88.4 86.8 87.1 86.2 85.9C85.5 84.6 84.9 83.5 84.2 82.5C83.6 81.5 83.1 81 82.9 81C82.9 81.6 82.9 82.1 82.9 82.7C82.9 83.3 82.9 83.8 82.9 84.4C82.9 87.1 82.9 89.8 83 92.6C83.1 95.3 83.1 98 83.2 100.7C83.2 101 83.2 101.8 83.3 103C83.4 104.2 83.4 105.6 83.5 107.3C83.6 109 83.6 110.7 83.6 112.7C83.6 114.6 83.7 116.4 83.7 118C83.7 119.6 83.7 121 83.7 122.2C83.7 123.4 83.6 124 83.5 124.2C83 125 82.5 125.5 81.9 125.6C81.3 125.8 80.7 125.7 80.1 125.5C79.5 125.3 79 125 78.6 124.7C78.2 124.4 77.9 124.1 77.8 123.9C77.7 123.7 77.7 123.1 77.7 122.1C77.7 121 77.7 119.7 77.7 118.1C77.7 116.5 77.8 114.8 77.8 113C77.9 111.2 77.9 109.4 78 107.8C78.1 106.1 78.1 104.6 78.1 103.3C78.1 102 78.1 101.1 78.1 100.7C78 97.3 78 94 78 90.7C77.5 87.3 77.5 84.2 77.5 81.2Z" fill="#68786C"/>
<path d="M116.9 66.8C117 65.9 117.3 65.3 117.9 65C118.5 64.6 119.3 64.6 120.1 64.8C120.9 65.1 121.7 65.7 122.6 66.7C123.4 67.7 124 69.2 124.4 71.1C125 73.9 125.4 77.3 125.5 81.1C125.7 85 125.8 89 125.8 93C125.8 95.1 125.8 97.5 125.8 100C125.8 102.6 125.9 105.2 126.1 107.9C126.3 110.6 126.6 113.2 127 115.8C127.4 118.4 128.1 120.7 129 122.7C129.3 123.4 129.6 124 129.9 124.5C130.2 125 130.6 125.4 131.1 125.6C131.6 125.8 132 125.8 132.5 125.7C133 125.5 133.6 125.2 134.1 124.6C134.5 124.1 134.9 123.5 135.2 122.6C135.5 121.7 135.8 120.6 136.1 119.4C136.5 117.2 136.9 114.7 137.1 111.9C137.3 109.1 137.5 106.3 137.5 103.6C137.6 100.9 137.6 98.4 137.7 96.2C137.7 94 137.8 92.4 137.8 91.4C137.9 88.8 137.9 86.3 137.9 83.8C137.9 81.3 138 79 138 76.8C138 74.6 138 72.7 138 70.9C138 69.2 138 67.8 138 66.7C138.3 66.2 138.8 65.7 139.4 65.1C140 64.5 140.7 64.1 141.4 63.7C142.1 63.3 142.8 63.1 143.6 63C144.3 62.9 145 63 145.5 63.5C146.1 63.9 146.5 64.8 146.8 66.3C147.1 67.8 147.3 69.5 147.4 71.4C147.6 73.4 147.6 75.5 147.6 77.7C147.6 79.9 147.6 82 147.5 84C147.4 86 147.4 87.8 147.3 89.4C147.2 91 147.2 92.1 147.2 92.8C147.1 95.2 147 97.6 146.9 100C146.8 102.4 146.6 104.8 146.3 107.2C146 109.6 145.7 112 145.2 114.3C144.7 116.7 144.1 119 143.3 121.3C142.7 123 142 124.5 141.2 125.9C140.4 127.3 139.4 128.5 138.2 129.5C137 130.5 135.6 131.1 134 131.4C132.4 131.7 130.5 131.6 128.3 130.9C126.6 130.4 125.2 129.5 124 128.3C122.8 127.1 121.8 125.6 120.9 123.9C119.7 121.6 118.8 119.1 118.2 116.2C117.6 113.3 117.1 110.5 116.8 107.6C116.5 104.8 116.3 102.1 116.2 99.6C116.1 97.1 116.1 95.1 116.1 93.5C116 90.9 116 88.2 116 85.5C116 82.8 116 80.3 116.1 77.9C116.2 75.5 116.2 73.3 116.3 71.4C116.7 69.6 116.8 68 116.9 66.8Z" fill="#68786C"/>
<path d="M152.9 118.3C153 117 153.1 115.7 153.1 114.2C153.2 112.7 153.2 111.1 153.2 109.4C153.2 107.9 153.2 106.3 153.2 104.7C153.2 103.1 153.1 101.4 153.1 99.7C153 97.2 152.9 94.7 152.9 92.1C152.8 89.6 152.8 87.1 152.8 84.7C152.8 82.3 152.7 80 152.7 77.9C152.7 75.8 152.7 73.8 152.7 72.1C152.7 70.8 152.7 69.9 152.8 69.5C152.9 69.1 153 68.8 153.1 68.7C153.2 68.6 153.4 68.6 153.5 68.5C153.6 68.5 153.7 68.2 153.8 67.6C153.9 67.4 153.9 67.1 153.9 66.8C153.9 66.5 153.9 66.3 153.9 66.2C153.9 66 154 65.8 154.3 65.6C154.7 65.1 155.8 64.8 157.6 64.6C159.4 64.4 161.4 64.3 163.6 64.3C164.1 64.3 164.6 64.3 165 64.3C165.5 64.3 166 64.3 166.4 64.3C168.6 64.4 170.6 64.6 172.5 64.8C174.3 65 175.6 65.3 176.4 65.6C176.7 65.7 177 65.9 177.3 66.3C177.6 66.7 177.8 67.1 177.8 67.6C177.8 67.7 177.7 67.9 177.6 68.2C177.2 69.1 176.3 69.6 175 69.8C173.7 70 172.2 70.1 170.6 70.1C169.8 70.1 169.1 70.1 168.4 70.1C167.7 70.1 167 70.1 166.2 70.1H164.4C163.6 70.1 163 70.1 162.4 70.2C161.8 70.3 161.3 70.4 161 70.6V71.5C161 72.2 161 73.1 161.1 74.3C161.2 75.5 161.2 76.7 161.3 78.1C161.5 79.4 161.6 80.6 161.7 81.9C161.8 83.2 161.9 84.3 161.9 85.3C162 86.3 162.1 87.5 162.2 88.8C162.5 89.1 163.1 89.3 164.1 89.3C164.8 89.3 165.5 89.3 166.3 89.2C167.1 89.1 167.9 89.1 168.8 89.1C169.3 89.1 169.8 89.1 170.2 89.2C170.7 89.3 171.1 89.3 171.5 89.4C172.4 89.7 172.9 90 173.1 90.3C173.3 90.7 173.5 91.1 173.5 91.5V91.8C173.5 92.4 173.4 92.9 173.1 93.3C172.8 93.8 172.2 94.1 171.1 94.4C170.4 94.6 169.6 94.7 168.8 94.8C168 94.9 167.2 95 166.3 95.1C165.5 95.2 164.7 95.2 164 95.3C163.3 95.3 162.7 95.3 162.2 95.3V97.8C162.2 98.8 162.2 99.8 162.2 100.8C162.2 101.8 162.2 102.8 162.3 103.8C162.3 104.8 162.3 105.7 162.3 106.6C162.3 107.5 162.3 108.4 162.3 109.4C162.3 110.4 162.3 111.3 162.3 112.2C162.3 113.1 162.3 114 162.3 115V116.7C162.3 117.3 162.4 117.6 162.5 117.8C162.6 118 163 118.1 163.6 118.2C164.8 118.2 166 118.2 167.1 118.1C168.2 118 169.2 118 170.3 118C171.4 118 172.4 118.1 173.4 118.2C174.4 118.3 175.4 118.6 176.5 118.9C177.9 119.4 178.7 120 178.7 120.8C178.7 121.2 178.5 121.5 178.2 121.9C177.3 122.8 176.1 123.4 174.5 123.6C172.9 123.9 171.3 124 169.7 124C169.1 124 168.4 124 167.8 124C167.2 124 166.6 124 166.2 124H164.5C163.5 124 162.7 124 162.1 124.1C161.5 124.1 161 124.2 160.6 124.3C160.2 124.3 159.8 124.4 159.4 124.5C159 124.6 158.6 124.6 158 124.6C157.1 124.6 156.6 124.5 156.2 124.3C155.8 124.1 155.4 123.8 154.9 123.5C153.9 122.9 153.2 122.4 152.9 121.8C152.6 121.2 152.5 120.6 152.5 120.1C152.5 119.7 152.5 119.4 152.6 119.1C152.8 118.5 152.9 118.4 152.9 118.3Z" fill="#68786C"/>
<path d="M197.7 137.8C197.5 137.9 197.2 137.9 196.7 137.9C195.8 137.9 195.1 137.7 194.5 137.3C194 136.9 193.7 136.3 193.7 135.6V135.4C193.8 134.9 193.9 134.6 194.2 134.3C194.5 134 194.9 133.8 195.4 133.7C195.9 133.5 196.4 133.4 197.1 133.2C197.7 133 198.4 132.8 199 132.6C199.4 132.4 199.8 132.2 200.2 131.8C200.6 131.4 201 131 201.4 130.6C201.8 130.1 202.1 129.7 202.3 129.1C202.5 128.6 202.7 128.1 202.7 127.6C202.8 127.2 202.8 126.8 202.8 126.4C202.8 126 202.8 125.6 202.8 125.2C202.8 123.1 202.5 121.3 201.9 119.7C201.3 118.1 200.7 116.6 200 115.2L199.7 114.6C198.9 112.9 198 111.4 196.9 110C195.9 108.6 194.7 107.2 193.6 105.9C192.4 104.5 191.2 103.1 190 101.7C188.8 100.3 187.5 98.7 186.2 96.9C185.2 95.6 184.4 94.1 183.6 92.6C182.8 91 182.2 89.3 181.7 87.6C181.2 85.8 180.8 84 180.5 82.2C180.2 80.4 180.1 78.6 180.1 76.8C180.1 76.2 180.1 75.7 180.1 75.1C180.1 74.5 180.2 74 180.3 73.4C180.5 71.7 180.9 70.1 181.5 68.6C182.1 67.1 182.9 65.8 183.9 64.7C184.9 63.6 186.2 62.7 187.6 62.1C189.1 61.5 190.8 61.2 192.7 61.2C194 61.2 195.4 61.4 197 61.7C199.4 62.2 201.2 62.9 202.3 63.9C203.4 64.8 204 65.7 204 66.4C204 67.4 203.3 67.9 201.8 67.9C200.8 67.9 199.7 67.6 198.5 67.1C197.9 66.8 197.2 66.6 196.7 66.5C196.1 66.4 195.6 66.3 195.1 66.3C193.2 66.3 191.7 67.1 190.8 68.8C189.9 70.5 189.3 72.5 189 75C188.9 75.3 188.9 75.5 188.9 75.8C188.9 76.1 188.9 76.4 188.9 76.7C188.9 78.1 189 79.4 189.3 80.8C189.6 82.2 189.9 83.5 190.3 84.8C190.7 86.1 191.2 87.3 191.7 88.3C192.2 89.4 192.7 90.3 193.3 91.1C194.6 93.1 196.1 94.9 197.6 96.7C199.1 98.5 200.6 100.2 202.1 102C203.6 103.7 205 105.5 206.2 107.3C207.5 109.1 208.6 110.9 209.6 112.8C210.9 115.5 211.6 118.5 211.6 121.9C211.6 124.1 211.3 126.2 210.6 128.2C210 130 209.1 131.6 208 133.1C206.8 134.6 205.4 135.7 203.5 136.5C202.6 137 201.7 137.4 200.7 137.7C199.7 138.1 198.6 138.3 197.5 138.5L197.7 137.8Z" fill="#68786C"/>
<path d="M231.6 67.1C231.7 67.6 231.7 67.8 231.8 67.9C231.9 68 231.9 68.3 232 68.8C232.5 77.9 232.9 86.7 233.2 95.4C233.3 99.8 233.5 104.3 233.9 109C234.3 113.7 234.5 118.2 234.5 122.8C234.5 125.1 234.4 127.4 234.3 129.5C234.2 130.5 233.8 131.2 233.2 131.7C232.6 132.2 231.8 132.4 230.9 132.4C229.8 132.4 228.7 132 227.6 131.2C226.5 130.4 225.9 129.3 225.8 127.7C225.6 125.3 225.5 122.9 225.2 120.5C225 118.1 224.8 115.6 224.6 113C224.4 110.4 224.2 107.7 224 104.9C223.8 102.1 223.6 99 223.5 95.7C223.4 93.3 223.3 90.9 223.3 88.6C223.2 86.3 223.2 84 223.2 81.8C223.2 79.1 223.2 76.5 223.3 74.1C223.4 71.7 223.6 69.4 223.8 67.3C223.6 67.3 223.4 67.3 223.2 67.3C223 67.3 222.8 67.3 222.5 67.3C222 67.3 221.5 67.3 221.1 67.3C220.6 67.3 220.2 67.3 219.7 67.3C218.6 67.3 217.7 67.2 217 67C215.7 66.7 214.7 66.3 214 65.7C213.3 65.1 213 64.6 213 64C213 63.1 213.7 62.6 215.2 62.3C217.5 62 219.7 61.8 221.8 61.7C223.9 61.6 226.1 61.4 228.5 61.2C229.2 61.2 230.1 61.1 231.2 61C232.3 60.9 233.5 60.9 234.7 60.9C236 60.9 237.3 61 238.6 61.1C239.8 61.2 240.7 61.5 241.3 61.9C242.3 62.5 242.8 63.2 242.8 64.1C242.8 65.2 242 66 240.6 66.5C239.8 66.8 239 67 238.1 67.1C237.2 67.2 236.4 67.2 235.4 67.2H233.4C233.1 67.2 232.7 67.2 232.4 67.2C232.1 67.1 231.8 67.1 231.6 67.1Z" fill="#68786C"/>
<path d="M258.6 97.4C258.5 97.5 258.4 97.9 258.4 98.7C258.4 99.5 258.4 100.4 258.4 101.5C258.4 102.6 258.5 103.8 258.5 105.1C258.6 106.4 258.6 107.6 258.7 108.8C258.8 110 258.8 111 258.8 111.9C258.8 112.8 258.8 113.4 258.8 113.6C258.7 115.7 258.8 118.2 258.9 120.9C259 123.7 259.1 126.4 259.1 129C259.1 129.9 259.2 130.9 259.3 131.9C259.4 133 259.4 134 259.3 135C259.2 136 258.9 136.8 258.4 137.6C257.9 138.4 257.1 138.9 255.9 139.1C254.3 139.4 253.1 139.2 252.3 138.6C251.4 138 250.8 137.1 250.3 136C249.8 134.9 249.5 133.7 249.4 132.5C249.2 131.2 249.1 130.2 249.1 129.3C248.9 127.2 248.8 124.9 248.7 122.2C248.6 119.5 248.5 116.8 248.4 114C248.3 111.2 248.2 108.5 248.2 105.8C248.2 103.1 248.1 100.6 248.1 98.5C248 96.3 248 94.5 248 93.1C248 91.7 248 90.9 248 90.6C247.9 88.3 247.9 86 247.9 83.8C247.9 81.6 247.8 79.5 247.8 77.6C247.8 75.7 247.8 74 247.8 72.4C247.8 70.8 247.8 69.5 247.8 68.5C247.8 67.9 247.8 67.5 247.8 67.3C247.8 67 247.8 66.8 247.8 66.6C247.8 66.4 247.9 66.2 248 66C248.1 65.8 248.3 65.5 248.5 65.1C247.8 64.2 247.4 63.4 247.4 62.8C247.3 62.1 247.5 61.6 247.9 61.2C248.3 60.8 248.9 60.5 249.7 60.3C250.5 60.1 251.5 60 252.6 60C254.8 59.9 257.1 60 259.6 60.5C262.1 60.9 264.4 61.6 266.5 62.6C268.6 63.6 270.4 64.9 272 66.6C273.6 68.2 274.5 70.2 274.9 72.6C275.3 75.4 275.2 77.9 274.6 80.1C274 82.4 273 84.3 271.7 86C270.4 87.7 268.9 89.1 267.2 90.3C265.5 91.5 263.8 92.3 262.1 92.9C264.6 97.8 267.1 102.6 269.7 107.4C272.3 112.2 274.9 117.1 277.4 121.9C277.7 122.8 278.1 123.7 278.6 124.8C279.1 125.9 279.5 127 279.8 128C280.1 129.1 280.3 130.1 280.3 131.1C280.3 132.1 280 132.8 279.5 133.3C278.8 133.9 278.1 134.2 277.4 134.1C276.7 134 276 133.8 275.4 133.4C274.8 133 274.2 132.4 273.8 131.8C273.3 131.2 272.9 130.6 272.6 130.1C271.4 128 270.1 125.5 268.9 122.4C267.7 119.3 266.4 116.2 265.2 113C264 109.8 262.8 106.8 261.7 104.1C260.6 101.3 259.6 99.2 258.7 97.8L258.6 97.4ZM258.2 88.7C259.6 88.6 260.8 88.2 261.9 87.4C263 86.6 263.9 85.5 264.6 84.2C265.3 82.9 265.9 81.5 266.3 79.9C266.7 78.3 266.8 76.8 266.8 75.3C266.8 73.8 266.5 72.4 266.1 71.1C265.7 69.8 265 68.8 264.1 68C263.2 67.3 262 66.6 260.4 66C258.9 65.4 257.3 65 255.8 64.9C256.1 65.3 256.3 65.6 256.5 65.8C256.7 66.1 256.8 66.5 256.9 67C256.9 67 256.9 67.6 257 68.5C257.1 69.5 257.1 70.7 257.2 72.1C257.3 73.5 257.4 75.1 257.5 76.9C257.6 78.6 257.7 80.3 257.8 81.9C257.9 83.5 258 84.9 258 86.1C258.1 87.4 258.2 88.3 258.2 88.7Z" fill="#68786C"/>
<path d="M285.6 113.5C285.3 110.8 284.9 108 284.6 105.1C284.2 102.2 284 99.3 283.8 96.4C283.7 94.5 283.6 92.4 283.6 90.1C283.6 87.8 283.7 85.4 284 82.9C284.3 80.5 284.7 78.1 285.4 75.8C286.1 73.5 287 71.5 288.3 69.7C289.6 67.9 291.2 66.5 293.1 65.4C295 64.3 297.4 63.8 300.2 63.8C301.7 63.8 303 64.2 304.1 64.9C304.7 65.3 305.2 65.6 305.5 65.8C305.8 66 306.1 66.1 306.4 66.2C306.7 66.3 307.1 66.3 307.5 66.4C307.9 66.5 308.5 66.6 309.3 66.7C311 67.3 312.4 67.9 313.5 68.7C314.7 69.5 315.7 70.5 316.7 71.6C317.6 72.6 318.3 74 318.9 75.6C319.5 77.3 319.9 79.2 320.3 81.3C320.6 83.4 320.8 85.6 320.9 88C321 90.4 321 92.8 321 95.3C320.9 97.3 320.9 99.5 320.8 101.9C320.7 104.3 320.5 106.7 320.1 109.1C319.7 111.5 319.2 113.9 318.5 116.2C317.8 118.5 316.8 120.5 315.5 122.3C314.2 124.1 312.7 125.6 310.8 126.7C308.9 127.9 306.6 128.5 304 128.6C301.7 128.7 299.5 128.4 297.4 127.6C295.3 126.8 293.5 125.8 291.8 124.4C290.2 123 288.8 121.4 287.7 119.5C286.6 117.7 285.9 115.7 285.6 113.5ZM302.3 69C301 68.6 299.8 68.7 298.9 69.2C298 69.7 297.2 70.5 296.6 71.7C296 72.8 295.5 74.2 295.2 75.7C294.9 77.3 294.6 78.9 294.5 80.6C294.4 82.3 294.3 84.1 294.3 85.8C294.3 87.5 294.3 89.1 294.4 90.6C294.5 92.1 294.6 93.3 294.6 94.4C294.7 95.5 294.7 96.1 294.7 96.4C294.7 96.9 294.7 97.9 294.8 99.5C294.9 101 295 102.8 295.2 104.8C295.4 106.8 295.7 108.9 296 111.1C296.4 113.3 296.9 115.3 297.4 117C298 118.8 298.7 120.2 299.6 121.3C300.5 122.4 301.5 122.9 302.8 122.7C304.2 122.5 305.5 121.8 306.6 120.6C307.7 119.4 308.6 117.9 309.4 116.1C310.2 114.3 310.8 112.4 311.2 110.3C311.7 108.2 312 106.1 312.3 104.1C312.6 102.1 312.8 100.3 312.9 98.6C313 96.9 313.1 95.6 313.1 94.6C313.2 92.5 313.1 90.5 313.1 88.5C313 86.5 312.9 84.6 312.7 82.9C312.5 81.2 312.3 79.6 311.9 78.1C311.6 76.7 311.2 75.5 310.9 74.6C310.6 73.9 310.3 73.5 309.9 73.5C309.5 73.5 308.9 73.3 308.2 73C307.3 72.3 306.5 71.7 305.8 71.2C305.2 70.7 304.5 70.3 303.9 69.8C303.1 69.3 302.6 69.1 302.3 69Z" fill="#68786C"/>
<path d="M94 187.6C94.6 186.5 95.1 185.3 95.4 183.9C95.7 182.6 95.9 181.2 95.8 179.9C95.8 178.6 95.6 177.4 95.2 176.3C94.8 175.2 94.3 174.3 93.5 173.6C92.7 173 91.7 172.4 90.4 171.9C89.1 171.4 87.8 171.1 86.4 171C86.6 171.3 86.8 171.6 87 171.8C87.2 172 87.3 172.4 87.3 172.8C87.3 172.8 87.3 173.3 87.4 174.1C87.4 174.9 87.5 175.9 87.6 177.2C87.7 178.4 87.7 179.8 87.8 181.3C87.9 182.8 88 184.2 88 185.6C88.1 187 88.1 188.2 88.2 189.2C88.3 190.3 88.3 191 88.4 191.4C89.6 191.4 90.7 191 91.6 190.3C92.6 189.6 93.4 188.7 94 187.6Z" fill="#BDCC3F"/>
<path d="M210.1 177.1C209.5 176.2 208.7 175.5 207.7 174.9C206.7 174.3 205.5 173.9 204.1 173.6C204.1 173.8 204.1 174.3 204.2 175.3C204.3 176.2 204.4 177.4 204.5 178.7C204.6 180.1 204.8 181.6 204.9 183.2C205.1 184.8 205.2 186.4 205.3 188C205.4 189.6 205.6 191 205.7 192.3C205.8 193.6 205.9 194.6 205.9 195.4C206.1 195.2 206.4 195 206.8 194.7C207.2 194.4 207.5 194.2 207.7 194C208.9 192.6 209.9 190.9 210.5 189C211.1 187.1 211.5 185.2 211.5 183.4C211.5 182.3 211.4 181.2 211.2 180.1C211.1 179 210.6 178 210.1 177.1Z" fill="#BDCC3F"/>
<path d="M402.9 185.5C398.9 172.5 393 164.1 385.2 160.1C381.1 157.8 372.7 156.1 359.8 154.9C346.9 153.7 332.1 152.6 315.2 151.6C298.4 150.6 280.5 150 261.7 149.6C242.8 149.2 225.2 149 208.9 148.8C194.1 148.7 181.2 148.8 170.2 149C159.2 149.2 151.5 149.3 147.1 149.3C111.9 149.1 75.9 149.7 39.1 151.1L25.4 151C19.1 151 13.4 152.5 8.1 155.5C2.9 158.5 0.199996 166.5 0.0999962 179.5C-3.8445e-06 189.6 1.7 201.7 5 215.8C7.1 225.4 10.6 232.3 15.5 236.5C20.3 240.7 26.5 244.3 34.1 247.2C39.7 248.9 48.9 249.8 61.4 249.9C73.4 250 87 249.6 102.2 248.9C117.5 248.1 131.9 247.8 145.4 247.9L194.5 248.2C210.5 248.3 227.4 248.5 245 249C262.6 249.4 279.8 250.2 296.6 251.5C313.4 252.7 329.1 254.3 343.7 256.1C358.3 257.9 370.5 260.5 380.2 264C381.8 264.6 383.2 265 384.4 265.3C385.7 265.6 386.9 265.7 388.2 265.8C394.5 265.8 399.2 263.2 402.4 257.8C405.6 252.4 407.5 245.8 408.2 238C408.5 235.7 408.7 231.8 408.8 226.2C408.8 212 406.9 198.5 402.9 185.5ZM74.2 189.3C73.4 191.2 72.4 192.8 71.3 194.4C70.1 195.9 68.9 197.2 67.5 198.3C66.2 199.4 65 200.2 64.1 200.9C64.1 201.2 64.1 201.5 64.1 201.8C64.1 202.1 64.1 202.6 64.2 203.4C64.2 203.6 64.2 204.4 64.3 205.8C64.4 207.2 64.5 208.9 64.6 210.9C64.7 212.9 64.8 215 64.9 217.2C65 219.4 65.1 221.5 65.1 223.4C65.1 225.3 65.2 226.9 65.2 228.2C65.2 229.5 65.2 230.2 65.2 230.3C64.9 230.7 64.4 231 63.7 231.2C63 231.4 62.3 231.4 61.6 231.3C60.9 231.2 60.2 231.1 59.5 230.8C58.8 230.6 58.3 230.3 57.9 229.9L58 229.8C57.7 229.5 57.5 228.9 57.3 227.9C57.1 226.9 56.9 225.7 56.8 224.2C56.7 222.7 56.5 221.1 56.4 219.2C56.3 217.4 56.2 215.4 56 213.4C55.9 211.5 55.7 209.4 55.6 207.4C55.5 205.3 55.4 203.3 55.3 201.3C55.2 199.3 55.1 197.4 55 195.6C54.9 193.8 54.8 192.1 54.7 190.6C54.7 189.9 54.6 188.9 54.5 187.7C54.4 186.5 54.3 185.1 54.2 183.7C54.1 182.2 54 180.7 53.9 179.2C53.8 177.6 53.8 176.2 53.9 174.9C54 173.6 54.1 172.5 54.3 171.6C54.5 170.7 54.8 170.1 55.3 169.9C56.1 169.6 57 169.4 58 169.3C59 169.3 60 169.4 61.1 169.5C66 170.2 69.6 171.8 71.8 174.2C74 176.6 75.2 179.6 75.4 183.1C75.3 185.5 75 187.5 74.2 189.3ZM106.6 229.6C106 230.1 105.4 230.4 104.8 230.3C104.2 230.3 103.6 230 103.1 229.7C102.6 229.3 102.1 228.9 101.7 228.3C101.3 227.8 100.9 227.3 100.7 226.8C99.6 225 98.6 222.8 97.5 220.2C96.4 217.5 95.4 214.8 94.4 212.1C93.4 209.4 92.4 206.8 91.4 204.4C90.5 202 89.6 200.2 88.8 199L88.9 198.7C88.8 198.8 88.8 199.2 88.7 199.8C88.7 200.4 88.7 201.2 88.7 202.2C88.7 203.2 88.8 204.2 88.8 205.3C88.8 206.4 88.9 207.4 88.9 208.4C88.9 209.4 89 210.3 89 211.1C89 211.9 89 212.4 89 212.6C89 214.4 89 216.5 89.1 218.9C89.2 221.3 89.3 223.6 89.3 225.8C89.3 226.6 89.3 227.4 89.4 228.3C89.5 229.2 89.5 230.1 89.4 230.9C89.3 231.7 89 232.5 88.6 233.1C88.2 233.7 87.5 234.2 86.5 234.4C85.2 234.7 84.1 234.5 83.4 234C82.7 233.5 82.1 232.7 81.7 231.8C81.3 230.9 81 229.9 80.9 228.8C80.8 227.7 80.7 226.8 80.6 226C80.5 224.2 80.3 222.2 80.3 219.9C80.2 217.6 80.1 215.3 80 212.9C79.9 210.5 79.8 208.2 79.8 205.8C79.8 203.5 79.7 201.4 79.7 199.5C79.7 197.6 79.6 196.1 79.6 194.9C79.6 193.7 79.6 193 79.6 192.8C79.6 190.8 79.5 188.9 79.5 187C79.5 185.1 79.5 183.3 79.4 181.7C79.4 180.1 79.4 178.6 79.4 177.2C79.4 175.9 79.4 174.7 79.4 173.8C79.4 173.3 79.4 173 79.4 172.7C79.4 172.5 79.4 172.3 79.4 172.1C79.4 171.9 79.5 171.8 79.5 171.6C79.6 171.4 79.7 171.2 79.9 170.8C79.3 170 79 169.4 78.9 168.8C78.9 168.2 79 167.8 79.3 167.4C79.6 167.1 80.2 166.8 80.9 166.7C81.6 166.5 82.4 166.5 83.4 166.4C85.3 166.3 87.3 166.4 89.4 166.8C91.5 167.1 93.5 167.8 95.3 168.6C97.1 169.5 98.7 170.6 100 172C101.3 173.4 102.2 175.1 102.5 177.2C102.9 179.6 102.8 181.7 102.2 183.7C101.7 185.6 100.8 187.3 99.7 188.8C98.6 190.2 97.3 191.5 95.8 192.5C94.3 193.5 92.9 194.2 91.4 194.8C93.5 199 95.7 203.1 97.9 207.3C100.1 211.4 102.3 215.6 104.5 219.8C104.8 220.5 105.1 221.4 105.5 222.3C105.9 223.2 106.3 224.2 106.5 225.1C106.8 226 106.9 226.9 106.9 227.7C107.3 228.6 107.1 229.2 106.6 229.6ZM133.5 219.7C132.8 220.5 131.7 221 130.3 221.2C128.9 221.4 127.5 221.5 126.2 221.5C125.6 221.5 125.1 221.5 124.6 221.5C124.1 221.5 123.6 221.5 123.2 221.5H121.8C120.9 221.5 120.2 221.5 119.7 221.6C119.2 221.6 118.8 221.7 118.4 221.7C118 221.7 117.7 221.8 117.4 221.9C117.1 222 116.7 222 116.2 222C115.5 222 115 221.9 114.7 221.7C114.4 221.5 114.1 221.3 113.6 221.1C112.7 220.6 112.2 220.1 111.9 219.6C111.7 219.1 111.5 218.6 111.5 218.2C111.5 217.9 111.5 217.6 111.6 217.4C111.7 217.2 111.7 217 111.8 216.9C111.9 215.8 112 214.6 112 213.4C112 212.1 112.1 210.8 112.1 209.3C112.1 208 112.1 206.7 112.1 205.3C112.1 203.9 112 202.5 112 201C111.9 198.8 111.8 196.7 111.8 194.5C111.8 192.3 111.7 190.2 111.7 188.1C111.7 186 111.7 184.1 111.6 182.2C111.6 180.4 111.6 178.7 111.6 177.2C111.6 176.1 111.6 175.3 111.7 175C111.8 174.6 111.9 174.4 112 174.4C112.1 174.3 112.2 174.3 112.3 174.3C112.4 174.3 112.5 174 112.6 173.6C112.6 173.4 112.7 173.2 112.7 172.9C112.7 172.7 112.7 172.5 112.7 172.4C112.7 172.3 112.8 172.1 113 171.9C113.4 171.5 114.3 171.2 115.8 171.1C117.3 170.9 119 170.8 121 170.8C121.4 170.8 121.8 170.8 122.2 170.8C122.6 170.8 123 170.8 123.4 170.8C125.3 170.9 127 171 128.6 171.2C130.2 171.4 131.3 171.6 131.9 171.9C132.1 172 132.4 172.2 132.7 172.5C133 172.8 133.1 173.2 133.1 173.6C133.1 173.7 133.1 173.9 133 174.1C132.6 174.8 131.9 175.3 130.8 175.5C129.7 175.7 128.4 175.8 127 175.8C126.4 175.8 125.7 175.8 125.1 175.8C124.5 175.8 123.9 175.8 123.2 175.8H121.6C121 175.8 120.4 175.8 119.9 175.9C119.4 175.9 119 176.1 118.7 176.2V177C118.7 177.6 118.7 178.4 118.8 179.4C118.8 180.4 118.9 181.5 119 182.7C119.1 183.8 119.2 184.9 119.3 185.9C119.4 187 119.4 187.9 119.5 188.8C119.6 189.7 119.6 190.7 119.7 191.8C119.9 192.1 120.5 192.2 121.4 192.2C122 192.2 122.6 192.2 123.3 192.1C124 192 124.7 192 125.4 192C125.8 192 126.2 192 126.6 192.1C127 192.1 127.4 192.2 127.7 192.3C128.4 192.5 128.9 192.8 129.1 193.1C129.3 193.4 129.4 193.8 129.4 194.1V194.4C129.4 194.9 129.3 195.3 129.1 195.7C128.9 196.1 128.3 196.4 127.4 196.6C126.8 196.7 126.1 196.8 125.4 197C124.7 197.1 124 197.2 123.3 197.3C122.6 197.4 122 197.4 121.3 197.4C120.7 197.4 120.2 197.4 119.7 197.4V199.5C119.7 200.4 119.7 201.2 119.7 202.1C119.7 202.9 119.7 203.8 119.8 204.7C119.8 205.5 119.8 206.3 119.8 207.1C119.8 207.9 119.8 208.7 119.8 209.5C119.8 210.3 119.8 211.1 119.8 211.9C119.8 212.7 119.8 213.5 119.8 214.3V215.7C119.8 216.2 119.9 216.5 120 216.7C120.1 216.9 120.4 217 120.9 217C122 217 122.9 217 123.9 216.9C124.8 216.8 125.7 216.8 126.7 216.8C127.6 216.8 128.5 216.9 129.4 217C130.3 217.1 131.1 217.3 132.1 217.6C133.3 218 134 218.6 134 219.2C133.9 219.1 133.7 219.4 133.5 219.7ZM161.2 225.2C160.7 226.8 159.9 228.2 159 229.4C158 230.7 156.7 231.6 155.2 232.3C154.5 232.7 153.7 233 152.8 233.3C151.9 233.6 151 233.8 150 233.9L150.1 233.4C149.9 233.4 149.6 233.5 149.3 233.5C148.5 233.5 147.9 233.3 147.4 233C146.9 232.7 146.7 232.2 146.7 231.6V231.5C146.7 231.1 146.9 230.8 147.1 230.6C147.4 230.4 147.7 230.2 148.1 230.1C148.5 229.9 149 229.8 149.6 229.7C150.2 229.6 150.7 229.4 151.3 229.2C151.6 229.1 152 228.9 152.3 228.6C152.7 228.3 153 228 153.3 227.6C153.6 227.2 153.9 226.8 154.1 226.3C154.3 225.8 154.4 225.4 154.5 225C154.5 224.7 154.6 224.3 154.6 224C154.6 223.7 154.6 223.3 154.6 223C154.6 221.2 154.3 219.6 153.8 218.2C153.3 216.8 152.7 215.5 152.2 214.3L151.9 213.8C151.2 212.4 150.4 211.1 149.5 209.9C148.6 208.7 147.6 207.5 146.6 206.4C145.6 205.2 144.6 204 143.5 202.8C142.4 201.6 141.4 200.2 140.3 198.7C139.5 197.6 138.7 196.3 138.1 195C137.5 193.6 136.9 192.2 136.5 190.7C136.1 189.2 135.7 187.6 135.5 186.1C135.2 184.5 135.1 183 135.1 181.5C135.1 181 135.1 180.6 135.1 180.1C135.1 179.6 135.1 179.2 135.2 178.7C135.4 177.2 135.7 175.8 136.3 174.6C136.8 173.3 137.5 172.2 138.4 171.2C139.3 170.3 140.3 169.5 141.6 169C142.9 168.5 144.3 168.2 146 168.2C147.1 168.2 148.3 168.3 149.7 168.6C151.8 169 153.3 169.6 154.3 170.4C155.3 171.2 155.7 171.9 155.7 172.6C155.7 173.5 155.1 173.9 153.8 173.9C153 173.9 152 173.7 151 173.2C150.4 172.9 149.9 172.8 149.4 172.6C148.9 172.5 148.4 172.4 148 172.4C146.3 172.4 145.1 173.1 144.3 174.6C143.5 176 143 177.8 142.7 179.9C142.7 180.1 142.6 180.4 142.6 180.6C142.6 180.9 142.6 181.1 142.6 181.4C142.6 182.6 142.7 183.7 142.9 184.9C143.1 186.1 143.4 187.2 143.8 188.3C144.1 189.4 144.5 190.4 145 191.3C145.4 192.2 145.9 193 146.3 193.7C147.4 195.4 148.7 197 150 198.5C151.3 200 152.6 201.5 153.8 203C155.1 204.5 156.2 206 157.3 207.5C158.4 209 159.4 210.6 160.2 212.3C161.3 214.6 161.9 217.2 161.9 220.1C162.1 221.7 161.8 223.4 161.2 225.2ZM191.6 187.3C191.6 189 191.5 190.6 191.4 191.9C191.3 193.3 191.3 194.2 191.3 194.8C191.2 196.9 191.1 198.9 191 201C190.9 203.1 190.7 205.1 190.5 207.2C190.3 209.3 190 211.3 189.6 213.3C189.2 215.3 188.7 217.3 188 219.3C187.5 220.7 186.9 222.1 186.2 223.3C185.5 224.5 184.7 225.6 183.7 226.4C182.7 227.2 181.5 227.8 180.1 228.1C178.7 228.4 177.1 228.2 175.2 227.7C173.8 227.3 172.6 226.5 171.5 225.5C170.5 224.5 169.6 223.2 168.8 221.7C167.8 219.8 167 217.6 166.5 215.1C166 212.6 165.6 210.2 165.3 207.7C165.1 205.3 164.9 203 164.8 200.8C164.7 198.7 164.7 196.9 164.7 195.6C164.7 193.4 164.6 191.1 164.6 188.8C164.6 186.5 164.6 184.3 164.7 182.3C164.7 180.2 164.8 178.4 164.8 176.7C164.8 175 164.9 173.7 165 172.6C165 171.9 165.3 171.3 165.9 171C166.5 170.7 167.1 170.6 167.8 170.9C168.5 171.1 169.2 171.7 169.9 172.6C170.6 173.5 171.1 174.7 171.4 176.4C171.9 178.8 172.2 181.7 172.4 185C172.5 188.3 172.6 191.7 172.7 195.2C172.7 197 172.7 199 172.7 201.2C172.7 203.4 172.8 205.6 172.9 207.9C173 210.2 173.3 212.4 173.7 214.6C174.1 216.8 174.6 218.8 175.4 220.6C175.6 221.2 175.9 221.7 176.2 222.2C176.5 222.6 176.8 222.9 177.2 223.1C177.6 223.3 178 223.3 178.4 223.2C178.8 223.1 179.3 222.7 179.8 222.2C180.2 221.8 180.5 221.2 180.8 220.5C181.1 219.7 181.3 218.8 181.6 217.8C182 215.9 182.2 213.8 182.4 211.4C182.6 209 182.7 206.6 182.8 204.2C182.9 201.9 182.9 199.7 182.9 197.8C182.9 195.9 183 194.5 183 193.7C183 191.5 183.1 189.3 183.1 187.2C183.1 185.1 183.1 183.1 183.2 181.2C183.2 179.3 183.2 177.7 183.2 176.2C183.2 174.7 183.2 173.5 183.2 172.6C183.5 172.2 183.9 171.7 184.4 171.2C184.9 170.7 185.5 170.3 186.1 170C186.7 169.7 187.3 169.5 188 169.4C188.6 169.3 189.2 169.4 189.6 169.8C190.1 170.1 190.5 170.9 190.7 172.2C190.9 173.5 191.1 174.9 191.2 176.6C191.3 178.3 191.4 180.1 191.4 182C191.6 183.7 191.6 185.5 191.6 187.3ZM216.5 189.3C215.7 191.2 214.7 192.8 213.6 194.4C212.4 195.9 211.2 197.2 209.8 198.3C208.5 199.4 207.3 200.2 206.4 200.9C206.4 201.2 206.4 201.5 206.4 201.8C206.4 202.1 206.4 202.6 206.5 203.4C206.5 203.6 206.5 204.4 206.6 205.8C206.7 207.2 206.8 208.9 206.9 210.9C207 212.9 207.1 215 207.2 217.2C207.3 219.4 207.4 221.5 207.4 223.4C207.4 225.3 207.5 226.9 207.5 228.2C207.5 229.5 207.5 230.2 207.5 230.3C207.2 230.7 206.7 231 206 231.2C205.3 231.4 204.6 231.4 203.9 231.3C203.2 231.2 202.5 231.1 201.8 230.8C201.1 230.6 200.6 230.3 200.2 229.9L200.3 229.8C200 229.5 199.8 228.9 199.6 227.9C199.4 226.9 199.2 225.7 199.1 224.2C199 222.7 198.8 221.1 198.7 219.2C198.6 217.4 198.5 215.4 198.3 213.4C198.2 211.5 198 209.4 197.9 207.4C197.8 205.3 197.7 203.3 197.6 201.3C197.5 199.3 197.4 197.4 197.3 195.6C197.2 193.8 197.1 192.1 197 190.6C197 189.9 196.9 188.9 196.8 187.7C196.7 186.5 196.6 185.1 196.5 183.7C196.4 182.2 196.3 180.7 196.2 179.2C196.1 177.6 196.1 176.2 196.2 174.9C196.3 173.6 196.4 172.5 196.6 171.6C196.8 170.7 197.1 170.1 197.6 169.9C198.4 169.6 199.3 169.4 200.3 169.3C201.3 169.3 202.3 169.4 203.4 169.5C208.3 170.2 211.9 171.8 214.1 174.2C216.3 176.6 217.5 179.6 217.7 183.1C217.6 185.5 217.2 187.5 216.5 189.3ZM247.1 187.3C247.1 189 247 190.6 246.9 191.9C246.8 193.3 246.8 194.2 246.8 194.8C246.7 196.9 246.6 198.9 246.5 201C246.4 203.1 246.2 205.1 246 207.2C245.8 209.3 245.5 211.3 245.1 213.3C244.7 215.3 244.2 217.3 243.5 219.3C243 220.7 242.4 222.1 241.7 223.3C241 224.5 240.2 225.6 239.2 226.4C238.2 227.2 237 227.8 235.6 228.1C234.2 228.4 232.6 228.2 230.7 227.7C229.3 227.3 228.1 226.5 227 225.5C226 224.5 225.1 223.2 224.3 221.7C223.3 219.8 222.5 217.6 222 215.1C221.5 212.6 221.1 210.2 220.8 207.7C220.6 205.3 220.4 203 220.3 200.8C220.2 198.7 220.2 196.9 220.2 195.6C220.2 193.4 220.1 191.1 220.1 188.8C220.1 186.5 220.1 184.3 220.2 182.3C220.2 180.2 220.3 178.4 220.3 176.7C220.3 175 220.4 173.7 220.5 172.6C220.5 171.9 220.8 171.3 221.4 171C222 170.7 222.6 170.6 223.3 170.9C224 171.1 224.7 171.7 225.4 172.6C226.1 173.5 226.6 174.7 226.9 176.4C227.4 178.8 227.7 181.7 227.9 185C228 188.3 228.1 191.7 228.2 195.2C228.2 197 228.2 199 228.2 201.2C228.2 203.4 228.3 205.6 228.4 207.9C228.5 210.2 228.8 212.4 229.2 214.6C229.6 216.8 230.1 218.8 230.9 220.6C231.1 221.2 231.4 221.7 231.7 222.2C232 222.6 232.3 222.9 232.7 223.1C233.1 223.3 233.5 223.3 233.9 223.2C234.3 223.1 234.8 222.7 235.3 222.2C235.7 221.8 236 221.2 236.3 220.5C236.6 219.7 236.8 218.8 237.1 217.8C237.5 215.9 237.7 213.8 237.9 211.4C238.1 209 238.2 206.6 238.3 204.2C238.4 201.9 238.4 199.7 238.4 197.8C238.4 195.9 238.5 194.5 238.5 193.7C238.5 191.5 238.6 189.3 238.6 187.2C238.6 185.1 238.6 183.1 238.7 181.2C238.7 179.3 238.7 177.7 238.7 176.2C238.7 174.7 238.7 173.5 238.7 172.6C239 172.2 239.4 171.7 239.9 171.2C240.4 170.7 241 170.3 241.6 170C242.2 169.7 242.8 169.5 243.5 169.4C244.1 169.3 244.7 169.4 245.1 169.8C245.6 170.1 246 170.9 246.2 172.2C246.4 173.5 246.6 174.9 246.7 176.6C246.8 178.3 246.9 180.1 246.9 182C247.2 183.7 247.2 185.5 247.1 187.3ZM273.3 219.7C272.6 220.5 271.5 221 270.1 221.2C268.7 221.4 267.3 221.5 266 221.5C265.4 221.5 264.9 221.5 264.4 221.5C263.9 221.5 263.4 221.5 263 221.5H261.6C260.7 221.5 260 221.5 259.5 221.6C259 221.6 258.6 221.7 258.2 221.7C257.8 221.7 257.5 221.8 257.2 221.9C256.9 222 256.5 222 256 222C255.3 222 254.8 221.9 254.5 221.7C254.2 221.5 253.9 221.3 253.4 221.1C252.5 220.6 252 220.1 251.7 219.6C251.4 219.1 251.3 218.6 251.3 218.2C251.3 217.9 251.3 217.6 251.4 217.4C251.5 217.2 251.5 217 251.6 216.9C251.7 215.8 251.8 214.6 251.8 213.4C251.8 212.1 251.9 210.8 251.9 209.3C251.9 208 251.9 206.7 251.9 205.3C251.9 203.9 251.8 202.5 251.8 201C251.7 198.8 251.6 196.7 251.6 194.5C251.6 192.3 251.5 190.2 251.5 188.1C251.5 186 251.5 184.1 251.4 182.2C251.4 180.4 251.4 178.7 251.4 177.2C251.4 176.1 251.4 175.3 251.5 175C251.6 174.6 251.7 174.4 251.8 174.4C251.9 174.3 252 174.3 252.1 174.3C252.2 174.3 252.3 174 252.4 173.6C252.4 173.4 252.5 173.2 252.5 172.9C252.5 172.7 252.5 172.5 252.5 172.4C252.5 172.3 252.6 172.1 252.8 171.9C253.2 171.5 254.1 171.2 255.6 171.1C257.1 170.9 258.8 170.8 260.8 170.8C261.2 170.8 261.6 170.8 262 170.8C262.4 170.8 262.8 170.8 263.2 170.8C265.1 170.9 266.8 171 268.4 171.2C270 171.4 271.1 171.6 271.7 171.9C271.9 172 272.2 172.2 272.5 172.5C272.8 172.8 272.9 173.2 272.9 173.6C272.9 173.7 272.9 173.9 272.8 174.1C272.4 174.8 271.7 175.3 270.6 175.5C269.5 175.7 268.2 175.8 266.8 175.8C266.2 175.8 265.5 175.8 264.9 175.8C264.3 175.8 263.7 175.8 263 175.8H261.4C260.8 175.8 260.2 175.8 259.7 175.9C259.2 175.9 258.8 176.1 258.5 176.2V177C258.5 177.6 258.5 178.4 258.6 179.4C258.6 180.4 258.7 181.5 258.8 182.7C258.9 183.8 259 184.9 259.1 185.9C259.2 187 259.2 187.9 259.3 188.8C259.4 189.7 259.4 190.7 259.5 191.8C259.7 192.1 260.3 192.2 261.2 192.2C261.8 192.2 262.4 192.2 263.1 192.1C263.8 192 264.5 192 265.2 192C265.6 192 266 192 266.4 192.1C266.8 192.1 267.2 192.2 267.5 192.3C268.2 192.5 268.7 192.8 268.9 193.1C269.1 193.4 269.2 193.8 269.2 194.1V194.4C269.2 194.9 269.1 195.3 268.9 195.7C268.7 196.1 268.1 196.4 267.2 196.6C266.6 196.7 265.9 196.8 265.2 197C264.5 197.1 263.8 197.2 263.1 197.3C262.4 197.4 261.8 197.4 261.1 197.4C260.5 197.4 260 197.4 259.6 197.4V199.5C259.6 200.4 259.6 201.2 259.6 202.1C259.6 202.9 259.6 203.8 259.7 204.7C259.7 205.5 259.7 206.3 259.7 207.1C259.7 207.9 259.7 208.7 259.7 209.5C259.7 210.3 259.7 211.1 259.7 211.9C259.7 212.7 259.7 213.5 259.7 214.3V215.7C259.7 216.2 259.8 216.5 259.9 216.7C260 216.9 260.3 217 260.8 217C261.9 217 262.8 217 263.8 216.9C264.7 216.8 265.6 216.8 266.6 216.8C267.5 216.8 268.4 216.9 269.3 217C270.2 217.1 271 217.3 272 217.6C273.2 218 273.9 218.6 273.9 219.2C273.7 219.1 273.6 219.4 273.3 219.7ZM301.1 225.2C300.6 226.8 299.8 228.2 298.9 229.4C297.9 230.7 296.6 231.6 295.1 232.3C294.4 232.7 293.6 233 292.7 233.3C291.8 233.6 290.9 233.8 289.9 233.9L290 233.4C289.8 233.4 289.5 233.5 289.2 233.5C288.4 233.5 287.8 233.3 287.3 233C286.8 232.7 286.6 232.2 286.6 231.6V231.5C286.6 231.1 286.8 230.8 287 230.6C287.3 230.4 287.6 230.2 288 230.1C288.4 229.9 288.9 229.8 289.5 229.7C290.1 229.6 290.6 229.4 291.2 229.2C291.5 229.1 291.9 228.9 292.2 228.6C292.6 228.3 292.9 228 293.2 227.6C293.5 227.2 293.8 226.8 294 226.3C294.2 225.8 294.3 225.4 294.4 225C294.4 224.7 294.5 224.3 294.5 224C294.5 223.7 294.5 223.3 294.5 223C294.5 221.2 294.2 219.6 293.7 218.2C293.2 216.8 292.6 215.5 292.1 214.3L291.8 213.8C291.1 212.4 290.3 211.1 289.4 209.9C288.5 208.7 287.5 207.5 286.5 206.4C285.5 205.2 284.5 204 283.4 202.8C282.3 201.6 281.3 200.2 280.2 198.7C279.4 197.6 278.6 196.3 278 195C277.4 193.6 276.8 192.2 276.4 190.7C276 189.2 275.6 187.6 275.4 186.1C275.1 184.5 275 183 275 181.5C275 181 275 180.6 275 180.1C275 179.6 275 179.2 275.1 178.7C275.3 177.2 275.6 175.8 276.2 174.6C276.7 173.3 277.4 172.2 278.3 171.2C279.2 170.3 280.2 169.5 281.5 169C282.8 168.5 284.2 168.2 285.9 168.2C287 168.2 288.2 168.3 289.6 168.6C291.7 169 293.2 169.6 294.1 170.4C295.1 171.2 295.5 171.9 295.5 172.6C295.5 173.5 294.9 173.9 293.6 173.9C292.8 173.9 291.8 173.7 290.8 173.2C290.2 172.9 289.7 172.8 289.2 172.6C288.7 172.5 288.2 172.4 287.8 172.4C286.1 172.4 284.9 173.1 284.1 174.6C283.3 176 282.8 177.8 282.5 179.9C282.5 180.1 282.4 180.4 282.4 180.6C282.4 180.9 282.4 181.1 282.4 181.4C282.4 182.6 282.5 183.7 282.7 184.9C282.9 186.1 283.2 187.2 283.6 188.3C283.9 189.4 284.3 190.4 284.8 191.3C285.2 192.2 285.7 193 286.1 193.7C287.2 195.4 288.5 197 289.8 198.5C291.1 200 292.4 201.5 293.6 203C294.9 204.5 296 206 297.1 207.5C298.2 209 299.2 210.6 300 212.3C301.1 214.6 301.7 217.2 301.7 220.1C301.9 221.7 301.7 223.4 301.1 225.2ZM326.8 172.2C326.1 172.5 325.4 172.6 324.7 172.7C324 172.8 323.2 172.8 322.4 172.8H320.7C320.4 172.8 320.1 172.8 319.8 172.8C319.5 172.8 319.2 172.8 319 172.9C319 173.3 319.1 173.5 319.2 173.6C319.3 173.7 319.3 173.9 319.4 174.3C319.8 182.1 320.2 189.7 320.4 197.1C320.5 200.9 320.7 204.7 321 208.7C321.3 212.7 321.5 216.6 321.5 220.5C321.5 222.5 321.4 224.4 321.3 226.3C321.2 227.1 320.9 227.7 320.3 228.1C319.7 228.5 319.1 228.7 318.3 228.7C317.3 228.7 316.4 228.4 315.5 227.7C314.6 227 314.1 226 314 224.7C313.9 222.6 313.7 220.6 313.5 218.5C313.3 216.4 313.1 214.3 313 212.1C312.8 209.9 312.7 207.6 312.5 205.1C312.3 202.7 312.2 200 312.1 197.2C312 195.1 311.9 193.1 311.9 191.1C311.9 189.1 311.8 187.2 311.8 185.3C311.8 183 311.8 180.8 311.9 178.7C312 176.6 312.1 174.7 312.3 172.9C312.1 172.9 311.9 172.9 311.8 172.9C311.6 172.9 311.4 172.9 311.2 172.9C310.8 172.9 310.4 172.9 310 172.9C309.6 172.9 309.2 172.9 308.8 172.9C307.9 172.9 307.1 172.8 306.5 172.6C305.4 172.3 304.5 172 303.9 171.5C303.3 171 303 170.5 303 170C303 169.3 303.6 168.8 304.9 168.6C306.9 168.3 308.8 168.2 310.6 168C312.4 167.9 314.3 167.8 316.4 167.6C317 167.6 317.8 167.5 318.7 167.4C319.7 167.3 320.7 167.3 321.7 167.3C322.8 167.3 324 167.4 325 167.5C326.1 167.6 326.8 167.8 327.3 168.2C328.2 168.7 328.6 169.3 328.6 170.1C328.8 171.1 328.1 171.8 326.8 172.2ZM362.4 202.8C362.3 204.9 362.1 206.9 361.8 209C361.5 211.1 361 213.1 360.4 215.1C359.8 217.1 358.9 218.8 357.9 220.3C356.8 221.8 355.5 223.1 353.9 224.1C352.3 225.1 350.3 225.6 348 225.7C346 225.8 344.1 225.5 342.3 224.9C340.5 224.3 338.9 223.3 337.5 222.1C336.1 220.9 334.9 219.5 334 217.9C333.1 216.3 332.5 214.5 332.2 212.7C331.9 210.4 331.6 208 331.3 205.5C331 203 330.8 200.6 330.6 198.1C330.5 196.5 330.5 194.7 330.5 192.7C330.5 190.7 330.6 188.6 330.8 186.5C331 184.4 331.4 182.4 332 180.4C332.6 178.4 333.4 176.7 334.5 175.2C335.6 173.7 336.9 172.4 338.6 171.5C340.3 170.6 342.3 170.1 344.7 170.1C346 170.1 347.1 170.4 348 171C348.6 171.3 349 171.6 349.2 171.7C349.5 171.9 349.7 172 350 172C350.2 172.1 350.6 172.1 350.9 172.2C351.3 172.2 351.8 172.3 352.5 172.5C353.9 173 355.1 173.6 356.1 174.2C357.1 174.9 358 175.7 358.8 176.7C359.5 177.6 360.2 178.7 360.7 180.2C361.2 181.6 361.6 183.3 361.9 185.1C362.2 186.9 362.4 188.8 362.5 190.9C362.6 193 362.6 195 362.6 197.2C362.6 198.8 362.5 200.7 362.4 202.8Z" fill="#BDCC3F"/>
<path d="M355.4 186.3C355.2 184.8 355 183.4 354.7 182.2C354.4 181 354.1 180 353.8 179.2C353.6 178.6 353.3 178.3 352.9 178.3C352.6 178.3 352.1 178.1 351.4 177.9C350.7 177.3 350 176.8 349.3 176.3C348.7 175.9 348.2 175.5 347.6 175.1C347 174.7 346.6 174.5 346.4 174.4C345.3 174.1 344.3 174.2 343.5 174.6C342.7 175 342 175.7 341.5 176.7C341 177.7 340.6 178.8 340.3 180.2C340 181.5 339.8 183 339.7 184.4C339.6 185.9 339.5 187.4 339.5 188.9C339.5 190.4 339.5 191.8 339.6 193C339.7 194.3 339.7 195.3 339.8 196.2C339.9 197.1 339.9 197.7 339.9 198C339.9 198.4 339.9 199.3 340 200.6C340.1 201.9 340.2 203.4 340.3 205.1C340.5 206.8 340.7 208.6 341 210.5C341.3 212.4 341.7 214.1 342.2 215.6C342.7 217.1 343.3 218.3 344.1 219.3C344.9 220.3 345.8 220.6 346.8 220.5C348 220.3 349.1 219.7 350.1 218.7C351 217.7 351.8 216.4 352.5 214.9C353.1 213.4 353.7 211.7 354.1 209.9C354.5 208.1 354.8 206.3 355 204.6C355.2 202.9 355.4 201.3 355.5 199.8C355.6 198.3 355.7 197.2 355.7 196.4C355.7 194.6 355.7 192.9 355.7 191.2C355.7 189.4 355.6 187.8 355.4 186.3Z" fill="#BDCC3F"/>
<path d="M67.8 177.1C67.2 176.2 66.4 175.5 65.4 174.9C64.4 174.3 63.2 173.9 61.8 173.6C61.8 173.8 61.8 174.3 61.9 175.3C62 176.2 62.1 177.4 62.2 178.7C62.3 180.1 62.5 181.6 62.6 183.2C62.8 184.8 62.9 186.4 63 188C63.1 189.6 63.3 191 63.4 192.3C63.5 193.6 63.6 194.6 63.6 195.4C63.8 195.2 64.1 195 64.5 194.7C64.9 194.4 65.2 194.2 65.4 194C66.6 192.6 67.6 190.9 68.2 189C68.8 187.1 69.2 185.2 69.2 183.4C69.2 182.3 69.1 181.2 68.9 180.1C68.8 179 68.4 178 67.8 177.1Z" fill="#BDCC3F"/>
<path d="M365.4 47.4C365.6 44.3 365.8 41.2 365.9 38.5C363.6 37.1 361.3 36 359.4 34.6C355.9 31.9 354.8 26.3 358.7 23C360.5 21.5 362.7 20.6 365 20.1C365.5 20 365.9 19.9 366.5 19.8C366.6 18.8 366.3 17.5 367.8 17.5C369.2 17.5 369.2 18.7 369.3 19.7C371.9 19.9 374.2 20.6 376.3 22.1C378.2 23.6 379.1 25.6 378.5 27.6C378.2 28.7 377.5 29.2 376.5 29.4C375.5 29.6 374.8 29.1 374.3 28.3C373.7 27.3 373 26.3 372.2 25.4C371.5 24.5 370.5 24.1 369.3 24.1C369.2 26.3 369.1 28.5 368.9 30.6C368.8 32.6 368.8 32.6 370.6 33.3C373.3 34.3 375.9 35.6 377.4 38.2C380 42.6 379.5 47.5 374.2 50C373.2 50.5 372.2 50.8 371.2 51.1C370.2 51.4 369.2 51.6 368.1 51.8C368.2 52.6 368.2 53.3 368.2 54.1C368.2 55 367.8 55.5 366.9 55.6C366 55.7 365.5 55.2 365.4 54.3C365.3 53.5 365.3 52.8 365.3 51.9C364.6 51.8 363.9 51.8 363.3 51.7C358.9 51.1 355.5 47.4 355.5 43.3C355.5 41.1 356.8 39.9 358.7 40.3C359.6 40.5 360.2 41.1 360.4 42C360.6 42.7 360.8 43.4 361 44C361.6 46.4 363 47.4 365.4 47.4ZM367.9 47.5C370.7 47.6 372.9 46 373.1 43.9C373.3 41.6 371.3 39.5 368.2 39C368.1 41.8 368 44.6 367.9 47.5ZM366.6 24.2C363.9 24.2 361.9 25.7 361.8 27.6C361.7 29.7 363.6 31.5 366.3 31.8C366.5 29.3 366.5 26.8 366.6 24.2Z" fill="#BDCC3F"/>
<path d="M421.5 68.3C421.6 66.5 421.7 64.8 421.8 63.2C420.5 62.4 419.2 61.8 418.1 61C416.1 59.5 415.5 56.3 417.7 54.4C418.7 53.5 420 53 421.3 52.8C421.6 52.7 421.8 52.7 422.1 52.7C422.1 52.1 422 51.4 422.9 51.4C423.7 51.4 423.7 52.1 423.7 52.6C425.2 52.7 426.5 53.1 427.6 54C428.7 54.8 429.2 56 428.9 57.1C428.7 57.7 428.4 58 427.8 58.1C427.2 58.2 426.8 58 426.5 57.5C426.1 56.9 425.7 56.4 425.3 55.9C424.9 55.4 424.3 55.2 423.6 55.2C423.5 56.4 423.5 57.7 423.4 58.9C423.3 60 423.3 60.1 424.4 60.4C426 61 427.4 61.7 428.2 63.2C429.7 65.7 429.4 68.5 426.4 69.9C425.8 70.2 425.3 70.4 424.7 70.5C424.1 70.7 423.5 70.8 422.9 70.9C422.9 71.3 423 71.8 423 72.2C423 72.7 422.7 73 422.3 73.1C421.8 73.1 421.5 72.8 421.5 72.4C421.5 72 421.5 71.5 421.4 71C421 71 420.6 70.9 420.3 70.9C417.8 70.5 415.9 68.5 415.9 66.1C415.9 64.8 416.6 64.2 417.7 64.4C418.2 64.5 418.5 64.9 418.7 65.4C418.8 65.8 418.9 66.2 419 66.6C419.4 67.7 420.2 68.3 421.5 68.3ZM423 68.4C424.6 68.4 425.8 67.5 426 66.3C426.1 65 425 63.8 423.2 63.5C423.1 65.1 423.1 66.7 423 68.4ZM422.3 55.1C420.8 55.1 419.6 55.9 419.6 57C419.5 58.2 420.6 59.2 422.2 59.4C422.2 58 422.2 56.6 422.3 55.1Z" fill="#BDCC3F"/>
<path d="M460.3 57.1C460.2 56.5 460.1 55.8 460 55.2C459.8 53.7 459.5 52.2 459 50.7C456.6 43 451.4 36.9 443 32C435 27.4 425.9 25 415.8 25C415.8 25 415.8 25 415.7 25C412.9 18.4 408 13.1 400.7 8.7C392.3 3.6 382.7 0.8 372 0.3C371.7 0.3 371.3 0.2 370.9 0.1C370.7 0.1 370.4 0 370.2 0H365.7L364.8 0.1C364.5 0.2 364.2 0.2 363.9 0.3C362.6 0.5 361.2 0.7 359.9 0.9C357 1.3 353.9 1.7 351 2.5C339.9 5.3 331.1 10.8 324.7 18.8C316.9 28.5 315.9 41.1 322 51.8C326.2 59.2 332.8 64.8 342.1 69C343.3 69.5 344.4 70 345.6 70.5C345.5 70.8 345.4 71 345.4 71.3C344.7 73.4 344.1 75.5 343.3 77.5C342.7 79.1 342.1 79.8 341.7 80.2C340.9 81 338.6 83.1 340 86.2C341 88.5 343.5 89.6 346.1 88.9C347 88.7 347.8 88.5 348.7 88.3C352 87.5 355.4 86.7 358.7 85.5C365.3 83.1 369.9 80 373 75.8C374 74.5 374.7 74 376 74C376.2 74 376.2 74 376.3 74L376.4 74.1L377.4 75.2C379.1 77.1 380.8 79.1 382.8 80.8C389.6 86.4 397.9 89.6 408 90.8C409.8 91 410.4 91.3 410.9 92.1C411.7 93.5 413 94.9 414.6 95.8L415 96C418.2 97.9 421.6 99.9 425.1 101.4C427.3 102.3 429.6 102.9 431.8 103.5C432.7 103.7 433.7 104 434.6 104.2L434.9 104.3H437.7L438.2 104C439.6 103.1 441 102 441.3 100.2C441.6 98.4 440.5 96.9 439.3 95.5C438.6 94.7 438.1 93.4 437.6 92.1L437.5 91.7C437 90.4 436.6 89.1 436.3 87.8C436.8 87.6 437.3 87.3 437.8 87.1C440.1 86 442.2 85 444.3 83.7C451.9 79.1 456.7 73.3 459 66C459.5 64.5 459.8 62.9 460 61.4C460.1 60.7 460.2 60.1 460.4 59.4V57.7L460.3 57.1ZM426.4 87.2C426.9 88.9 427.3 90.6 427.8 92.4C425.9 91.7 424.1 90.8 422.4 89.8C419.7 88.2 418.2 86.6 417.2 84.7C415.9 81.9 413.2 81.8 412.3 81.7C406.7 81.4 401.4 80.2 396.7 78.2C392.7 76.5 389.5 74.5 386.9 72C389 71.3 391.3 70.5 393.4 69.6C403.8 65.1 411 58.8 415.3 50.2C417.9 45 419 39.7 418.4 34.4C418.7 34.4 419 34.5 419.2 34.5C421.7 34.8 424 35.1 426.3 35.5C433.6 37 439.5 39.9 444.2 44.4C448.5 48.5 450.8 53.6 450.6 58.7C450.4 63.8 447.8 68.7 443.2 72.6C439.7 75.6 435.5 77.8 430.5 79.5C426.2 80.9 425.3 82.7 426.4 87.2ZM355.3 69.8C356.4 65.7 355.4 63.8 351.3 62.4C343.4 59.8 337.7 56.4 333.4 51.5C325.2 42.3 325.6 30.3 334.5 21.7C340.3 16 347.6 12.4 356.8 10.6C360.7 9.8 364.6 9.5 368.4 9.5C374.8 9.5 381.2 10.6 387.3 12.7C394.3 15.1 399.6 18.5 403.6 23.2C409.8 30.3 410.4 39.8 405.2 47.8C400.7 54.7 394.2 59.4 385.3 62.2C381.7 63.3 377.8 63.9 374 64.5L372.3 64.8C370 65.2 367.7 65.9 366.3 68.8C365.1 71.2 362.9 73 359.2 74.8C357.3 75.7 355.3 76.5 353.2 77.4C354 74.7 354.7 72.3 355.3 69.8Z" fill="#68786C"/>
<path d="M53.7 82.3C53.9 81.7 54 80.8 54.3 79.4C54.5 78 54.7 76.6 54.9 75.2C55.1 73.8 55.3 72.4 55.5 71.1C55.7 69.8 55.8 69 55.9 68.7C56.2 67.7 56.6 66.7 57.1 65.7C57.6 64.7 58.2 64.2 59.1 63.9C60.1 63.6 61.2 63.8 62.1 64.5C63.1 65.2 63.7 66 63.9 67C64 67.3 64 68.1 63.9 69.5C63.8 70.8 63.7 72.3 63.5 73.9C63.3 75.5 63.1 77.1 62.9 78.6C62.7 80.1 62.5 81.2 62.4 81.8C63 81.7 63.9 81.6 65 81.6C66.1 81.5 67.1 81.6 68.1 81.8C69 82 69.7 82.4 70.2 82.8C70.7 83.3 70.8 84 70.4 84.9C69.8 85.5 69.2 85.9 68.4 86.1C67.7 86.3 66.9 86.4 66.2 86.4C65.5 86.4 64.7 86.4 64 86.4C63.3 86.4 62.6 86.6 62.1 86.9C62 87.3 61.9 88.3 61.7 89.9C61.5 91.5 61.4 93.2 61.3 95C61.1 96.8 61 98.6 60.9 100.2C60.8 101.9 60.7 103 60.7 103.5C61.2 103.6 61.7 103.6 62.2 103.6C62.7 103.5 63.2 103.5 63.7 103.5C64.2 103.5 64.7 103.5 65.2 103.5C65.7 103.5 66.1 103.6 66.5 103.8C67.2 104.1 67.7 104.5 68 105C68.3 105.5 68.5 106 68.4 106.5C68.3 107 68 107.4 67.3 107.8C66.6 108.2 65.7 108.5 64.4 108.6C63.1 108.7 62.2 108.8 61.6 108.8C61 108.9 60.5 108.9 59.9 109C59.9 109.3 59.8 110.1 59.7 111.3C59.6 112.5 59.5 113.9 59.3 115.4C59.2 116.9 59.1 118.5 58.9 120C58.8 121.6 58.7 122.9 58.7 123.9C58.6 125 58.5 125.9 58.5 126.7C58.5 127.5 58.4 128.2 58.3 128.9C58.1 129.8 57.5 130.5 56.3 131C55.1 131.4 54 131.6 52.8 131.5C52.2 131.4 51.7 131.3 51.2 131.2C50.7 131 50.3 130.8 49.9 130.4C49.5 130 49.3 129.5 49.1 128.8C48.9 128.1 48.9 127.3 49 126.2C49.3 123.6 49.5 120.9 49.7 118.2C49.9 115.5 50.2 112.7 50.5 109.9C50.1 109.8 49.6 109.8 49 109.8C48.4 109.8 47.7 109.8 47 109.9C46.3 110 45.7 110 45.1 110.1C44.5 110.2 44 110.2 43.6 110.2C43.3 113 43.1 115.8 42.9 118.6C42.7 121.4 42.4 124.2 42.1 126.9C42 127.7 41.9 128.4 41.7 128.9C41.5 129.4 41.3 129.8 41 130C40.7 130.2 40.2 130.4 39.7 130.4C39.1 130.5 38.4 130.5 37.5 130.4C36 130.3 34.9 130.1 34.1 129.5C33.3 129 33 128 33.2 126.6C33.4 125.4 33.6 124.1 33.8 122.5C34 120.9 34.2 119.3 34.4 117.7C34.6 116.1 34.8 114.7 34.9 113.3C35.1 112 35.2 111 35.3 110.3C33.8 110.4 32.6 110.3 31.8 109.9C31 109.5 30.5 109 30.3 108.5C30.1 107.9 30.2 107.4 30.6 106.9C31 106.4 31.6 106.1 32.4 105.9C32.8 105.8 33.3 105.8 34.1 105.9C34.9 105.9 35.4 105.9 35.7 105.9C35.8 105.3 36 104.2 36.2 102.6C36.4 101 36.7 99.2 36.9 97.4C37.1 95.5 37.4 93.8 37.6 92.1C37.8 90.4 37.9 89.3 38 88.7C37.5 88.6 37 88.6 36.4 88.7C35.8 88.8 35.2 88.7 34.6 88.6C34.3 88.6 33.8 88.6 33.1 88.5C32.4 88.4 31.8 88.3 31.1 88.1C30.4 87.9 30 87.7 29.6 87.4C29.2 87.1 29.2 86.6 29.5 86.1C30 85.4 30.8 84.9 32.1 84.6C33.4 84.3 34.5 84.2 35.6 84.2L38.7 83.8C38.7 83.5 38.8 82.7 39 81.6C39.2 80.4 39.4 79.1 39.7 77.6C40 76.1 40.2 74.6 40.5 73C40.8 71.4 41 70 41.2 68.7C41.4 67.9 41.5 67.2 41.8 66.4C42 65.7 42.3 65.1 42.8 64.6C43.2 64.1 43.8 63.9 44.5 63.8C45.2 63.7 46 64 47.1 64.5C47.7 64.8 48.2 65.2 48.5 65.6C48.8 66 49 66.4 49 66.9C49.1 67.4 49 67.9 49 68.4C49 69 49 69.6 48.9 70.2C48.8 70.8 48.7 71.7 48.5 73C48.3 74.2 48.1 75.5 47.9 76.7C47.7 78 47.5 79.2 47.3 80.4C47.1 81.6 47 82.4 46.9 83C47.8 82.9 48.9 82.9 50.2 82.8C51.7 82.6 52.7 82.5 53.7 82.3ZM44.5 104.9C44.7 105 45.1 105 45.7 105C46.3 105 46.9 104.9 47.6 104.8C48.3 104.7 49 104.6 49.7 104.5C50.4 104.4 51 104.3 51.5 104.3C52.1 100.2 52.5 96.7 52.8 93.8C53 90.9 53.2 88.9 53.3 87.9C53.1 87.7 52.7 87.6 52.2 87.6C51.6 87.6 51 87.6 50.3 87.7C49.6 87.8 48.9 87.9 48.3 88C47.6 88.1 47.1 88.2 46.8 88.3C46.7 88.4 46.7 88.8 46.6 89.6C46.5 90.3 46.4 91.2 46.3 92.3C46.2 93.4 46 94.6 45.9 95.8C45.7 97.1 45.6 98.3 45.4 99.5C45.2 100.7 45.1 101.8 45 102.7C44.6 103.7 44.5 104.4 44.5 104.9Z" fill="#BDCC3F"/>
</g>
<defs>
<clipPath id="clip0">
<rect width="460.3" height="265.7" fill="white"/>
</clipPath>
</defs>
</svg>
